# xmcd CD database file
#
# Track frame offsets:
#	150
#	13312
#	33179
#	60942
#	83017
#	95890
#	116502
#	133039
#	145790
#	164239
#	186607
#	207150
#	226703
#	248433
#	260331
#	277760
#	300459
#
# Disc length: 4189 seconds
#
# Revision: 0
# Processed by: cddbd v1.5.1PL2 Copyright (c) Steve Scherf et al.
# Submitted via: CDex 1.51
#
DISCID=e2105b11
DTITLE=Gary Moore - Best of the Blues - Disc 1
DYEAR=2002
DGENRE=Blues
TTITLE0=Walking By Myself
TTITLE1=Oh Pretty Woman
TTITLE2=Still Got The Blues (For You)
TTITLE3=Separate Ways
TTITLE4=Since I Met You Baby
TTITLE5=Story Of The Blues
TTITLE6=All Your Love
TTITLE7=Too Tired
TTITLE8=Need Your Love So Bad
TTITLE9=Midnight Blues
TTITLE10=King Of The Blues
TTITLE11=Jumpin' At Shadows
TTITLE12=Texas Strut
TTITLE13=Moving On
TTITLE14=Stop Messin' Around
TTITLE15=Parisienne Walkways
TTITLE16=The Supernatural
EXTD=YEAR: 2002
EXTT0=
EXTT1=
EXTT2=
EXTT3=
EXTT4=
EXTT5=
EXTT6=
EXTT7=
EXTT8=
EXTT9=
EXTT10=
EXTT11=
EXTT12=
EXTT13=
EXTT14=
EXTT15=
EXTT16=
PLAYORDER=
